<svg xmlns="http://www.w3.org/2000/svg" width="209.378" height="81.787" viewBox="0 0 209.378 81.787">
  <g id="Group_34" data-name="Group 34" transform="translate(-197.282 -242.681)">
    <path id="Path_1" data-name="Path 1" d="M207.6,317.49c-.16-.1-.075-.249-.075-.371q-.006-19.61,0-39.22c0-.82,0-.82-.831-.82-1.8,0-3.6,0-5.4.008a.435.435,0,0,1-.48-.3q-1.7-3.844-3.422-7.677a.976.976,0,0,0-.108-.154v-.064c1.065-.007,2.13-.02,3.2-.021q12.388-.014,24.775-.025a17.19,17.19,0,0,1,5.926.942,13.721,13.721,0,0,1,7.413,5.971,11.006,11.006,0,0,1,1.473,4.481,11.591,11.591,0,0,1-2.274,8.382,12.336,12.336,0,0,1-3.548,3.2c-.335.2-.668.414-1.008.61-.218.126-.158.191.023.29.533.291,1.112.477,1.66.737a11.287,11.287,0,0,1,5.648,5.544,10.923,10.923,0,0,1,.981,3.968,13.605,13.605,0,0,1-6.539,12.262A15.664,15.664,0,0,1,229.9,317.3a7.815,7.815,0,0,1-1.29.195l-8.142,0H208.433C208.156,317.5,207.88,317.492,207.6,317.49ZM218.982,289.4a.836.836,0,0,1,.4-.041c1.1,0,2.2.008,3.293-.008a17.994,17.994,0,0,0,2.425-.066,5.9,5.9,0,0,0,3.665-1.882,5.774,5.774,0,0,0,1.288-2.7,6.591,6.591,0,0,0-.536-4.708,5.116,5.116,0,0,0-3.721-2.67,19.223,19.223,0,0,0-3.187-.154c-1.63-.044-3.261-.012-4.892-.016-.566,0-.551-.083-.551.549q0,15.108,0,30.216c0,.234.013.47,0,.7s.045.334.3.315c.276-.021.554-.007.831,0,2.663.046,5.326.1,7.989-.011a5.58,5.58,0,0,0,1.692-.291,5.256,5.256,0,0,0,3.443-4.243,6.084,6.084,0,0,0-.616-4.21,5.533,5.533,0,0,0-4.577-3.031c-1.157-.1-2.319-.116-3.48-.1a.4.4,0,0,1-.431-.276c-.814-1.823-1.645-3.639-2.469-5.458C219.554,290.677,219.269,290.039,218.982,289.4Z" transform="translate(0 -22.575)" fill="#fff"/>
    <path id="Path_2" data-name="Path 2" d="M1300.876,711.772c-.424-.142-.879-.111-1.307-.242-.579-.178-1.163-.337-1.749-.491-.2-.051-.207-.153-.187-.328.074-.645.135-1.291.19-1.938.034-.388.071-.424.443-.274a11.494,11.494,0,0,0,2.8.75,4.651,4.651,0,0,0,3.65-.871,2.887,2.887,0,0,0,.169-4.3,9.79,9.79,0,0,0-2.491-1.519,18.726,18.726,0,0,1-2.961-1.613,5.069,5.069,0,0,1,.369-8.388,6.907,6.907,0,0,1,3.156-.917,12.705,12.705,0,0,1,4.51.553c.266.081.355.206.308.48-.113.65-.211,1.3-.3,1.955-.03.219-.1.266-.309.173a8.056,8.056,0,0,0-4.015-.684,3.394,3.394,0,0,0-2,.733,2.372,2.372,0,0,0,.111,3.632,14.47,14.47,0,0,0,2.879,1.626,12.817,12.817,0,0,1,2.74,1.68,5.065,5.065,0,0,1,1.807,3.334,6.373,6.373,0,0,1-.259,2.9,5.282,5.282,0,0,1-3.8,3.367c-.621.186-1.269.227-1.894.386Z" transform="translate(-949.073 -387.304)" fill="#fff"/>
    <path id="Path_3" data-name="Path 3" d="M780.5,711.758a5.767,5.767,0,0,0-1.162-.253c-.562-.159-1.127-.311-1.688-.477-.163-.048-.217-.1-.194-.284.087-.675.155-1.352.224-2.03.037-.359.05-.374.378-.245a10.257,10.257,0,0,0,3.556.82,3.842,3.842,0,0,0,3.543-1.621,2.774,2.774,0,0,0-.4-3.563,8.624,8.624,0,0,0-2.5-1.552,16.694,16.694,0,0,1-3.164-1.765,4.806,4.806,0,0,1-1.822-4.578,4.671,4.671,0,0,1,1.219-2.751,5.367,5.367,0,0,1,2.571-1.524,10.953,10.953,0,0,1,5.555.057c.279.065.553.153.83.231.15.043.224.108.191.3q-.184,1.037-.326,2.08c-.03.227-.066.286-.3.18a8.075,8.075,0,0,0-4.11-.671,3.281,3.281,0,0,0-2.2,1.017,2.544,2.544,0,0,0-.021,2.91,6.655,6.655,0,0,0,2.039,1.442,22.036,22.036,0,0,1,3.728,2.067,5.183,5.183,0,0,1,2.119,3.908,5.871,5.871,0,0,1-.833,3.667,5.253,5.253,0,0,1-2.533,2,8.171,8.171,0,0,1-2.38.569c-.089.008-.2-.033-.261.072Z" transform="translate(-500.325 -387.29)" fill="#fff"/>
    <path id="Path_4" data-name="Path 4" d="M543.06,711.773c-.579-.126-1.16-.239-1.735-.381-.423-.1-.835-.251-1.255-.366-.161-.044-.185-.122-.166-.278.081-.665.15-1.332.214-2,.036-.378.058-.391.425-.247a9.945,9.945,0,0,0,3.622.8,3.9,3.9,0,0,0,3.38-1.529,2.744,2.744,0,0,0,.431-2.242,3.181,3.181,0,0,0-1.586-2.057,32.128,32.128,0,0,0-3.06-1.563,8.8,8.8,0,0,1-2.314-1.562,4.725,4.725,0,0,1-1.332-3.914,5.047,5.047,0,0,1,4.352-4.621,11.967,11.967,0,0,1,5.8.4c.15.043.274.1.239.306-.118.7-.231,1.406-.334,2.111-.031.217-.092.25-.3.159a8.179,8.179,0,0,0-4.143-.666,2.95,2.95,0,0,0-2.259,1.146,2.408,2.408,0,0,0,.493,3.214,11.9,11.9,0,0,0,2.368,1.373,15.685,15.685,0,0,1,3.1,1.8,5.491,5.491,0,0,1,1.9,5.559,4.825,4.825,0,0,1-2.334,3.45,7.731,7.731,0,0,1-3.323,1.03c-.091.009-.2-.023-.266.07Z" transform="translate(-295.38 -387.305)" fill="#fff"/>
    <path id="Path_5" data-name="Path 5" d="M1391.183,327.9c-1.6,0-3.2,0-4.8,0a.609.609,0,0,1-.606-.333c-1.512-2.408-3-4.829-4.44-7.281-.113-.192-.234-.379-.348-.571a1.184,1.184,0,0,0-1.132-.634c-1.181.049-2.363.118-3.546.071a26.82,26.82,0,0,1-7.395-1.287,23.081,23.081,0,0,1-5.518-2.67,25.532,25.532,0,0,1-5.2-4.58,27.233,27.233,0,0,1-3.449-4.916,23.334,23.334,0,0,1-1.554-3.558,21.494,21.494,0,0,1-.954-3.865,24.834,24.834,0,0,1-.222-5.475,30.8,30.8,0,0,1,.928-5.532,24.327,24.327,0,0,1,4.094-8.568,22.311,22.311,0,0,1,4.246-4.277,26.153,26.153,0,0,1,6.053-3.443,30.375,30.375,0,0,1,5.628-1.726,23.943,23.943,0,0,1,8.475-.2,23.591,23.591,0,0,1,7.2,2.395,29.388,29.388,0,0,1,6.165,4.327,24.768,24.768,0,0,1,4.729,5.687,22.836,22.836,0,0,1,2.374,5.478,24.747,24.747,0,0,1,.9,7.545,26.779,26.779,0,0,1-.629,5.285,24.353,24.353,0,0,1-1.962,5.472,24.94,24.94,0,0,1-5.63,7.287,30.731,30.731,0,0,1-5.159,3.769c-.38.222-.374.22-.135.586q2.2,3.37,4.393,6.742c.865,1.324,1.745,2.638,2.615,3.959.05.076.165.148.122.246-.053.121-.19.067-.289.067q-2.478.006-4.956,0ZM1377.4,310.142a16.08,16.08,0,1,0-16.215-16.107A16.224,16.224,0,0,0,1377.4,310.142Z" transform="translate(-996.165 -22.512)" fill="#fff"/>
    <path id="Path_6" data-name="Path 6" d="M997.143,292.882q0-12.054-.006-24.107c0-.3.076-.4.387-.4q5.77.037,11.539.051c2.824.009,5.649,0,8.473.024a23.189,23.189,0,0,1,3.7.189,16.175,16.175,0,0,1,3.935,1.164,15.191,15.191,0,0,1,8.365,9.451,13.819,13.819,0,0,1,.646,4.338,14.015,14.015,0,0,1-1.952,6.955,16.111,16.111,0,0,1-6.121,5.9c-.693.393-1.412.738-2.128,1.088-.266.13-.188.28-.088.461.653,1.181,1.309,2.361,1.954,3.547.923,1.7,1.834,3.4,2.758,5.1.966,1.772,1.943,3.538,2.912,5.309a27.564,27.564,0,0,0,1.336,2.426c.573.836.974,1.759,1.5,2.616.075.123.2.3.16.39-.059.137-.267.075-.412.075q-4.652,0-9.3,0a.984.984,0,0,1-1.018-.479c-.4-.654-.743-1.332-1.088-2.01q-1.643-3.221-3.265-6.453-1.091-2.16-2.18-4.322c-.792-1.564-1.6-3.118-2.38-4.69-.818-1.658-1.6-3.333-2.4-5q-.826-1.724-1.654-3.447c-.091-.189-.106-.268.166-.266,2.344.018,4.69.046,7.032-.052a7.065,7.065,0,0,0,6.648-5.065,6.586,6.586,0,0,0-2.067-7.06,6.869,6.869,0,0,0-4.486-1.739c-3.8-.121-7.608.015-11.412-.028-.322,0-.326.163-.326.4q.007,6.171,0,12.341,0,13.109,0,26.217c0,.448-.016.9,0,1.342.008.231-.092.3-.3.3-.075,0-.149,0-.224,0h-7.674l-.733,0c-.2,0-.32-.066-.3-.3.018-.2,0-.4,0-.607q0-11.83,0-23.66Z" transform="translate(-690.048 -22.167)" fill="#fff"/>
    <path id="Path_7" data-name="Path 7" d="M601.656,242.681c.251.544.5,1.069.738,1.6q.8,1.736,1.6,3.474,1.258,2.754,2.51,5.511,1.382,3.027,2.767,6.052c.746,1.635,1.484,3.272,2.232,4.906.918,2.007,1.846,4.009,2.763,6.016.715,1.563,1.418,3.132,2.131,4.7.639,1.4,1.289,2.8,1.929,4.2.979,2.142,1.944,4.289,2.933,6.427.713,1.541,1.457,3.068,2.18,4.6.755,1.6,1.5,3.213,2.252,4.818.138.295-.04.278-.237.278q-3.773-.016-7.546-.027c-.362,0-.725-.009-1.087,0a.374.374,0,0,1-.4-.248q-1.945-4.226-3.895-8.449-1.646-3.574-3.285-7.151c-.962-2.106-1.913-4.217-2.873-6.323q-1.275-2.8-2.56-5.59-.937-2.042-1.88-4.081a.93.93,0,0,0-.066-.145c-.057-.083-.076-.228-.2-.215-.112.012-.1.147-.136.23q-1.114,2.468-2.227,4.936t-2.229,4.939q-1.013,2.249-2.024,4.5c-.914,2.034-1.822,4.07-2.743,6.1-.825,1.819-1.685,3.623-2.492,5.45-.867,1.963-1.794,3.9-2.672,5.855a.338.338,0,0,1-.37.218q-4.253-.006-8.505,0c-.192,0-.383,0-.575.013s-.238-.058-.151-.24c.3-.634.592-1.272.887-1.909q1.983-4.276,3.966-8.551c.716-1.542,1.44-3.081,2.156-4.624q1.333-2.873,2.659-5.75c.831-1.792,1.672-3.579,2.5-5.373.717-1.552,1.416-3.113,2.135-4.664.656-1.414,1.333-2.818,1.992-4.231q1.225-2.629,2.435-5.264c1.045-2.267,2.058-4.548,3.14-6.8.769-1.6,1.377-3.266,2.091-4.888C601.538,242.89,601.515,242.78,601.656,242.681Z" transform="translate(-328.015 0)" fill="#fff"/>
    <path id="Path_8" data-name="Path 8" d="M1116.865,696.744v.561q0,7.945.006,15.89c0,.246-.082.312-.312.309q-1.1-.014-2.206,0c-.214,0-.294-.045-.294-.281q.009-9.464,0-18.928c0-.251.083-.294.31-.293q2.015.016,4.029,0a.332.332,0,0,1,.372.25c.8,2.129,1.615,4.253,2.419,6.38q1.492,3.948,2.973,7.9c.2.522.4,1.042.61,1.6a6.913,6.913,0,0,0,.478-1.194q1.027-2.75,2.044-5.5,1.033-2.777,2.069-5.554c.45-1.214.9-2.429,1.335-3.648a.3.3,0,0,1,.347-.234q2.046.009,4.093,0c.223,0,.284.059.283.287q-.009,6.874,0,13.748c0,1.716-.007,3.432.005,5.148,0,.257-.063.324-.32.317-.713-.02-1.428-.022-2.141,0-.281.009-.358-.056-.357-.346q.015-5.883.006-11.766,0-2.158,0-4.316c0-.113,0-.226,0-.338l-.078-.017c-.2.526-.409,1.052-.611,1.579q-1.236,3.213-2.47,6.427t-2.462,6.459c-.261.685-.527,1.368-.777,2.057a.337.337,0,0,1-.373.262c-.735-.01-1.471-.009-2.206,0a.336.336,0,0,1-.382-.271c-.628-1.683-1.282-3.355-1.926-5.032q-1.067-2.782-2.131-5.567-.993-2.59-1.988-5.179c-.093-.241-.182-.483-.273-.725Z" transform="translate(-790.918 -389.364)" fill="#fff"/>
    <path id="Path_9" data-name="Path 9" d="M1001.541,703.756q0-4.667,0-9.335c0-.424,0-.424.415-.424q5.1,0,10.2-.007c.251,0,.36.046.35.329-.021.617-.014,1.236,0,1.854.005.227-.071.293-.292.292-2.473-.006-4.945,0-7.417-.008-.451,0-.452-.013-.452.44q0,2.477,0,4.954c0,.2.053.3.272.29.2-.009.4.023.605.022q3.084-.008,6.169-.023c.273,0,.405.047.381.385a17.7,17.7,0,0,0,0,1.789c.007.242-.063.3-.3.3-2.249-.01-4.5,0-6.746-.011-.276,0-.381.049-.378.359.016,1.875.007,3.751.008,5.626,0,.432,0,.43.42.43,2.462,0,4.924,0,7.385-.007.291,0,.365.091.357.365-.018.618-.012,1.236,0,1.854,0,.195-.067.259-.261.259q-5.211-.005-10.422,0c-.272,0-.283-.138-.283-.339q0-3.1,0-6.2Z" transform="translate(-693.846 -389.352)" fill="#fff"/>
    <path id="Path_10" data-name="Path 10" d="M634.119,693.913c.909,0,1.76.042,2.6-.015a1.062,1.062,0,0,1,1.075.611c1.3,1.992,2.628,3.961,3.944,5.94.475.714.928,1.442,1.47,2.172.3-.455.584-.885.865-1.318q1.82-2.8,3.637-5.61c.34-.525.682-1.049,1.016-1.578a.37.37,0,0,1,.355-.2c.927.01,1.855,0,2.782.006.069,0,.163-.038.2.041s-.038.136-.077.195q-3.059,4.555-6.119,9.109c-.414.616-.818,1.238-1.235,1.851a.854.854,0,0,0-.1.523c0,2.472,0,4.945.011,7.417,0,.295-.09.365-.361.36-.714-.013-1.428-.009-2.142,0-.228,0-.324-.03-.322-.314.02-2.461,0-4.923.029-7.385a2,2,0,0,0-.494-1.176c-1.242-1.848-2.5-3.685-3.747-5.531q-1.639-2.427-3.263-4.864C634.223,694.089,634.192,694.034,634.119,693.913Z" transform="translate(-376.867 -389.269)" fill="#fff"/>
    <path id="Path_11" data-name="Path 11" d="M877.645,704.937c0-2.718,0-5.435.007-8.152,0-.259-.057-.339-.321-.337-1.78.01-3.559,0-5.339.01-.3,0-.4-.063-.392-.381.023-.616,0-1.235-.015-1.852-.007-.239.134-.221.288-.221h4Q881,694,886.132,694c.27,0,.374.051.363.345-.022.6-.015,1.194,0,1.79.008.25-.066.326-.321.324-1.78-.011-3.559,0-5.339-.017-.334,0-.4.1-.4.408q.015,8.1.01,16.208c0,.42,0,.42-.409.42-.693,0-1.386-.013-2.078,0-.257.006-.323-.078-.322-.327.008-2.738,0-5.477,0-8.216Z" transform="translate(-581.732 -389.36)" fill="#fff"/>
    <path id="Path_12" data-name="Path 12" d="M272.462,623.169c.277,0,.553.006.83.006h12.037l8.142,0a5.92,5.92,0,0,1-1.266.124c-5.518.087-11.037,0-16.555-.037-.958-.006-1.916-.037-2.874-.06A.63.63,0,0,1,272.462,623.169Z" transform="translate(-64.859 -328.253)" fill="#fff"/>
  </g>
</svg>
