<svg xmlns="http://www.w3.org/2000/svg" xmlns:xlink="http://www.w3.org/1999/xlink" width="420.505" height="1039.519" viewBox="0 0 420.505 1039.519">
  <defs>
    <clipPath id="clip-path">
      <rect width="420.505" height="1039.519" fill="none"/>
    </clipPath>
  </defs>
  <g id="Repeat_Grid_1" data-name="Repeat Grid 1" opacity="1" clip-path="url(#clip-path)">
    <g transform="translate(64.505 45.518)">
      <path id="Path_13" data-name="Path 13" d="M-94.025,510.569l-69.922-.048-141.331-307.5L-445.351,510.341l-69.179-.048L-305.219,51.05Z" transform="translate(450.025 -96.569)" fill="#004472" style="mix-blend-mode: multiply;isolation: isolate"/>
    </g>
    <g transform="translate(64.505 348.518)">
      <path id="Path_13-2" data-name="Path 13" d="M-94.025,510.569l-69.922-.048-141.331-307.5L-445.351,510.341l-69.179-.048L-305.219,51.05Z" transform="translate(450.025 -96.569)" fill="#004472" style="mix-blend-mode: multiply;isolation: isolate"/>
    </g>
    <g transform="translate(64.505 651.518)">
      <path id="Path_13-3" data-name="Path 13" d="M-94.025,510.569l-69.922-.048-141.331-307.5L-445.351,510.341l-69.179-.048L-305.219,51.05Z" transform="translate(450.025 -96.569)" fill="#004472" style="mix-blend-mode: multiply;isolation: isolate"/>
    </g>
    <g transform="translate(64.505 954.518)">
      <path id="Path_13-4" data-name="Path 13" d="M-94.025,510.569l-69.922-.048-141.331-307.5L-445.351,510.341l-69.179-.048L-305.219,51.05Z" transform="translate(450.025 -96.569)" fill="#004472" style="mix-blend-mode: multiply;isolation: isolate"/>
    </g>
  </g>
</svg>
