<svg xmlns="http://www.w3.org/2000/svg" width="784.086" height="719.205" viewBox="0 0 784.086 719.205">
  <g id="Group_5" data-name="Group 5" transform="translate(468.66 3507.928) rotate(-90)">
    <path id="Path_16" data-name="Path 16" d="M3148.915-467.91c3.744,8.093,7.374,15.917,10.984,23.752q11.914,25.851,23.8,51.713,18.728,41,37.366,82.036,20.566,45.06,41.2,90.094c11.1,24.33,22.1,48.709,33.23,73.029,13.671,29.871,27.478,59.677,41.14,89.552,10.639,23.274,21.1,46.629,31.726,69.908,9.515,20.858,19.188,41.644,28.716,62.494,14.574,31.884,28.95,63.855,43.663,95.673,10.609,22.942,21.694,45.664,32.455,68.539,11.232,23.876,22.3,47.832,33.519,71.717,2.061,4.386-.592,4.146-3.536,4.134q-56.168-.239-112.338-.409c-5.393-.018-10.8-.127-16.181.057-2.965.1-4.675-1.061-5.886-3.693q-28.953-62.908-57.985-125.781-24.5-53.208-48.9-106.46c-14.325-31.346-28.477-62.772-42.77-94.132q-18.981-41.645-38.109-83.221-13.953-30.394-27.984-60.755a13.907,13.907,0,0,0-.984-2.154c-.858-1.234-1.135-3.392-3.053-3.194-1.654.172-1.465,2.191-2.02,3.425q-16.586,36.737-33.155,73.485-16.583,36.765-33.177,73.526-15.087,33.487-30.124,67c-13.606,30.276-27.128,60.592-40.842,90.821-12.284,27.079-25.079,53.929-37.09,81.126-12.907,29.221-26.716,58.021-39.775,87.163-1.212,2.71-2.871,3.247-5.511,3.243q-63.312-.1-126.622-.055c-2.85,0-5.705.051-8.556.192-2.991.147-3.542-.871-2.251-3.579,4.483-9.434,8.816-18.941,13.21-28.417q29.516-63.649,59.04-127.3c10.664-22.956,21.435-45.864,32.089-68.825q19.839-42.773,39.585-85.594c12.379-26.676,24.9-53.287,37.232-79.984,10.676-23.108,21.082-46.343,31.789-69.436,9.763-21.054,19.852-41.955,29.658-62.991q18.24-39.128,36.25-78.367c15.551-33.741,30.638-67.708,46.739-101.185,11.453-23.829,20.5-48.625,31.134-72.771C3147.147-464.8,3146.8-466.445,3148.915-467.91Z" transform="translate(0 0)" fill="none" stroke="#00bbe3" stroke-width="1"/>
  </g>
</svg>
