<svg xmlns="http://www.w3.org/2000/svg" width="607.7" height="328.223" viewBox="0 0 607.7 328.223">
  <g id="Group_506" data-name="Group 506" transform="translate(248.374 -43.312)">
    <path id="uuid-207e1ec5-f316-41d7-bdda-8b0dd0a2bd60" d="M335.132,439.722c5.684.871,9.842,4.51,9.287,8.128s-5.613,5.843-11.3,4.97a14.392,14.392,0,0,1-6.32-2.5l-24.038-4,1.6-9.5,23.984,3.394A14.392,14.392,0,0,1,335.132,439.722Z" transform="translate(-175.672 -157.724)" fill="#ffb6b6"/>
    <path id="Path_2363" data-name="Path 2363" d="M329.195,394.464l9.321,19.779,46.857,15.774,38.883,2.075.974-9.339-42.139-8.811L339.85,393.508Z" transform="translate(-273.321 -142.085)" fill="#e6e6e6"/>
    <g id="Group_502" data-name="Group 502" transform="translate(131.655 168.677)">
      <rect id="Rectangle_505" data-name="Rectangle 505" width="1.278" height="111.03" transform="translate(29.365 153.357) rotate(-178.739)" fill="#3f3d56"/>
      <path id="Path_2364" data-name="Path 2364" d="M316.1,396.455a24.957,24.957,0,0,0-2.972-18.958l-1.084.676a24.108,24.108,0,0,1,2.83,17.922l1.226.359Z" transform="translate(-285.595 -304.981)" fill="#3f3d56"/>
      <path id="Path_2365" data-name="Path 2365" d="M345.5,369.189s1.744-11.919-14.321-15.19c-3.347-.681-6.493-1.147-9.378-1.458a3.063,3.063,0,0,0-1.657,5.8c4.454,2.18,8.644,4.927,10.828,8.179,6.023,8.971,14.528,2.669,14.528,2.669Z" transform="translate(-318.42 -295.963)" fill="#fff"/>
      <path id="Path_2366" data-name="Path 2366" d="M310.1,450.4l1.226-.359a24.108,24.108,0,0,1,2.83-17.922l-1.084-.676A24.957,24.957,0,0,0,310.1,450.4Z" transform="translate(-281.252 -324.46)" fill="#3f3d56"/>
      <path id="Path_2367" data-name="Path 2367" d="M268.056,423.136s-1.744-11.919,14.321-15.19c3.347-.682,6.493-1.147,9.377-1.458a3.063,3.063,0,0,1,1.657,5.8c-4.454,2.18-8.644,4.927-10.828,8.179-6.023,8.971-14.528,2.669-14.528,2.669Z" transform="translate(-235.786 -315.442)" fill="#fff"/>
      <path id="Path_2368" data-name="Path 2368" d="M279.605,290.913c-3.234-.853-6.258-2.338-6.157-3.808.119-1.746,4.609-2.916,8.482-3.094-2.921-2.285-5.605-5.445-4.785-6.874.755-1.314,4.265-.8,7.5.352-1.917-2.74-3.264-5.828-2.238-6.885,1.278-1.316,5.816.956,8.912,3.467-.6-3.913-.3-8.851,1.457-9.3,1.468-.374,3.549,2.5,4.975,5.629.63-3.284,1.907-6.4,3.38-6.4,2.1,0,3.8,6.327,3.8,10.449,0,.233-.006.452-.017.662.211-.244.452-.5.727-.767,2.957-2.872,8.681-6.059,10.143-4.554,1.026,1.057-.321,4.145-2.238,6.885,3.239-1.157,6.75-1.666,7.5-.352,1.014,1.765-3.32,6.171-6.843,8.308.212-.026.434-.047.671-.063,4.112-.281,10.541.986,10.683,3.079.1,1.47-2.924,2.955-6.157,3.808,3.219,1.21,6.227,3.091,5.954,4.581-.331,1.809-5.385,2.442-9.359,2.071,2.969,2.848,6.188,7.951,4.844,9.446-.984,1.1-4.157-.038-7.021-1.764,1.375,3.153,2.121,6.62.862,7.463-1.664,1.113-6.228-2.761-8.634-6.095.245,4.078-.731,9.681-2.667,9.9-1.464.167-3.085-2.786-4.084-5.977-1.062,3.271-2.8,6.362-4.3,6.157-1.952-.266-2.8-6.009-2.439-10.091-2.482,3.2-6.659,6.615-8.235,5.561-1.259-.842-.513-4.31.862-7.463-2.864,1.726-6.037,2.86-7.021,1.764-1.343-1.5,1.876-6.6,4.844-9.446-3.974.371-9.028-.263-9.359-2.071-.273-1.49,2.735-3.37,5.954-4.581Zm17.412,11.536a4.817,4.817,0,0,1,2.169.689,4.077,4.077,0,0,1,2.508-.909,3.682,3.682,0,0,1,2.9.5,4.187,4.187,0,0,1,1.79-1.888,4.817,4.817,0,0,1,2.08-.923,4.077,4.077,0,0,1,1.274-2.344,6.1,6.1,0,0,1,1.33-1.186,3.543,3.543,0,0,1-.394-3.045,4.817,4.817,0,0,1,.787-2.136,4.077,4.077,0,0,1-.794-2.547,3.764,3.764,0,0,1,.587-2.823c-1.631.207-2.418-.809-3.149-2.082a4.816,4.816,0,0,1-.779-2.138,4.077,4.077,0,0,1-2.252-1.431,4.722,4.722,0,0,1-1.3-1.925,3.98,3.98,0,0,1-2.649.662,4.077,4.077,0,0,1-2.6-.619,4.817,4.817,0,0,1-2.077.931,5.026,5.026,0,0,1-2.175.2A5.6,5.6,0,0,1,293.119,281a4.077,4.077,0,0,1-2.252,1.431,4.817,4.817,0,0,1-.779,2.138,4.14,4.14,0,0,1-1.79,1.927,6.629,6.629,0,0,1,.042,1.621,4.077,4.077,0,0,1-.794,2.547,4.817,4.817,0,0,1,.787,2.136,3.542,3.542,0,0,1-.394,3.045,6.1,6.1,0,0,1,1.33,1.186,4.077,4.077,0,0,1,1.274,2.344,4.817,4.817,0,0,1,2.08.923,3.621,3.621,0,0,1,1.9,2.323A4.366,4.366,0,0,1,297.017,302.449Z" transform="translate(-269.694 -264)" fill="#fff"/>
      <ellipse id="Ellipse_132" data-name="Ellipse 132" cx="13.57" cy="13.57" rx="13.57" ry="13.57" transform="translate(15.971 13.298)" fill="#3f3d56"/>
    </g>
    <path id="Path_2369" data-name="Path 2369" d="M651.741,563.167c0,.422-.6.76-1.346.76H59.855c-.746,0-1.346-.339-1.346-.76s.6-.76,1.346-.76h590.54c.746,0,1.346.339,1.346.76Z" transform="translate(-306.883 -203.07)" fill="#3f3d56"/>
    <path id="Path_2370" data-name="Path 2370" d="M314.192,507.817l8.368,21.166,10.83-7.384-6.4-22.151Z" transform="translate(-171.895 -180.337)" fill="#ffb6b6"/>
    <path id="Path_2371" data-name="Path 2371" d="M264.222,500.219l22.151,21.167-8.861,9.353-22.644-17.721Z" transform="translate(-86.976 -180.615)" fill="#ffb6b6"/>
    <path id="Path_2372" data-name="Path 2372" d="M447.477,385.126l.246-1.723,5.661-11.075,18.705,4.922-3.446,15.26Z" transform="translate(-395.754 -134.437)" fill="#ffb6b6"/>
    <path id="Path_2373" data-name="Path 2373" d="M322.565,483.273l-.575,7.393s-2.378,31,16.819,33.463,27.566,4.922,38.888-14.275l17.721-31.5,10.351,12.316,13.769-10.839s-9.845-38.4-17.721-39.872a17.975,17.975,0,0,0-2.938-.3,20.282,20.282,0,0,0-16.568,8.28l-22.335,29.921-8.122-3.692-29.289,9.107Z" transform="translate(-262.966 -158.747)" fill="#2f2e41"/>
    <path id="Path_2374" data-name="Path 2374" d="M287.675,539.4l-4.43-8.368-12.8,8.861s-2.954,10.829,1.477,12.306,16.736-.492,16.736-.492,22.643,4.922,23.136.492-10.337-5.415-10.337-5.415L287.674,539.4Z" transform="translate(-121.75 -191.743)" fill="#2f2e41"/>
    <path id="Path_2375" data-name="Path 2375" d="M296.173,503.453,330.384,481.9l17.475,15.649,11.814-13.783s-21.659-32-28.058-33.473a164.925,164.925,0,0,0-16.736-2.461l-31.5,29.043,12.8,26.581Z" transform="translate(-178.489 -161.699)" fill="#2f2e41"/>
    <path id="Path_2376" data-name="Path 2376" d="M219.291,530.266l-11.322,12.306,1.493,1.277s2.937,12.793,9.829,8.465S226.674,547,226.674,547s19.69,4.43,21.659-3.446-3.446-6.4-3.446-6.4l-4.917,2.953-20.68-9.845Z" transform="translate(-19.401 -191.464)" fill="#2f2e41"/>
    <ellipse id="Ellipse_133" data-name="Ellipse 133" cx="15.752" cy="15.752" rx="15.752" ry="15.752" transform="translate(54.676 216.724)" fill="#ffb6b6"/>
    <path id="Path_2377" data-name="Path 2377" d="M451.28,395.013l-22.643-6.891s-8.861,20.674-7.384,30.027,14.931,53.911,14.931,53.911l29.864-16.5s.492-9.845,1.969-14.275,6.153-17.967-4.184-29.289-12.552-16.983-12.552-16.983Z" transform="translate(-377.16 -140.14)" fill="#e6e6e6"/>
    <g id="Group_503" data-name="Group 503" transform="translate(236.364 43.312)">
      <rect id="Rectangle_506" data-name="Rectangle 506" width="1.124" height="230.025" transform="translate(60.075 317.696) rotate(-178.739)" fill="#3f3d56"/>
      <path id="Path_2378" data-name="Path 2378" d="M112.177,306.566c.058-.2,5.633-19.881-6.072-38.657l-.954.595c11.441,18.353,6,37.554,5.947,37.746l1.079.316Z" transform="translate(-49.714 -117.271)" fill="#3f3d56"/>
      <path id="Path_2379" data-name="Path 2379" d="M174.8,242.925s3.613-24.693-29.669-31.47c-6.934-1.412-13.452-2.377-19.428-3.02-7.053-.759-9.8,8.9-3.433,12.015,9.228,4.516,17.908,10.207,22.432,16.945,12.478,18.585,30.1,5.53,30.1,5.53Z" transform="translate(-118.697 -91.219)" fill="#fff"/>
      <path id="Path_2380" data-name="Path 2380" d="M99.97,433.565l1.079-.316c-.056-.192-5.483-19.41,5.947-37.746l-.954-.6c-11.7,18.776-6.13,38.461-6.072,38.657Z" transform="translate(-39.471 -172.862)" fill="#3f3d56"/>
      <path id="Path_2381" data-name="Path 2381" d="M.115,369.926s-3.613-24.693,29.669-31.47c6.934-1.412,13.452-2.377,19.428-3.02,7.053-.759,9.8,8.9,3.433,12.015-9.228,4.516-17.908,10.207-22.432,16.945-12.478,18.585-30.1,5.53-30.1,5.53Z" transform="translate(66.74 -146.811)" fill="#fff"/>
      <path id="Path_2382" data-name="Path 2382" d="M25.582,55.756c-6.7-1.766-12.964-4.844-12.756-7.889.247-3.617,9.548-6.04,17.571-6.409-6.052-4.735-11.613-11.28-9.912-14.24,1.563-2.721,8.836-1.667,15.546.73-3.971-5.677-6.763-12.075-4.637-14.264,2.649-2.727,12.048,1.98,18.463,7.183C48.609,12.76,49.24,2.528,52.876,1.6,55.918.828,60.228,6.78,63.184,13.264,64.49,6.46,67.134,0,70.186,0c4.347,0,7.872,13.108,7.872,21.647,0,.483-.013.937-.035,1.371.436-.506.936-1.034,1.507-1.588C85.656,15.481,97.514,8.877,100.543,12c2.126,2.189-.666,8.587-4.637,14.264,6.71-2.4,13.983-3.451,15.546-.73,2.1,3.657-6.879,12.785-14.178,17.212.439-.053.9-.1,1.39-.131,8.52-.581,21.837,2.043,22.133,6.38.208,3.045-6.057,6.123-12.756,7.889,6.67,2.507,12.9,6.4,12.336,9.49-.686,3.747-11.157,5.058-19.389,4.291,6.15,5.9,12.819,16.472,10.036,19.57-2.04,2.27-8.612-.08-14.546-3.655,2.848,6.531,4.395,13.716,1.786,15.461-3.448,2.306-12.9-5.72-17.888-12.627.508,8.449-1.514,20.057-5.525,20.515-3.032.346-6.392-5.772-8.462-12.384-2.2,6.777-5.808,13.18-8.918,12.755-4.044-.552-5.807-12.45-5.052-20.905-5.142,6.622-13.8,13.7-17.061,11.521-2.609-1.745-1.062-8.929,1.786-15.461-5.934,3.575-12.507,5.925-14.546,3.655-2.783-3.1,3.886-13.669,10.036-19.57-8.232.768-18.7-.544-19.389-4.291-.566-3.087,5.666-6.983,12.336-9.49Zm36.072,23.9a9.979,9.979,0,0,1,4.494,1.427c1.272-1.263,3.13-1.647,5.2-1.883,2.313-.264,4.415-.29,6.018,1.045.587-1.63,2.029-2.788,3.709-3.912a9.979,9.979,0,0,1,4.31-1.913c.114-1.789,1.25-3.309,2.639-4.856a12.644,12.644,0,0,1,2.756-2.458c-1.419-1.728-1.256-3.912-.816-6.309a9.979,9.979,0,0,1,1.631-4.424c-1.2-1.328-1.5-3.2-1.645-5.276-.155-2.265-.09-4.319,1.217-5.848-3.379.43-5.009-1.675-6.525-4.313a9.979,9.979,0,0,1-1.615-4.43c-1.777-.236-3.216-1.472-4.665-2.964a9.783,9.783,0,0,1-2.685-3.988c-1.418,1.192-3.353,1.372-5.487,1.372-2.079,0-3.969-.171-5.376-1.282a9.979,9.979,0,0,1-4.3,1.928A10.411,10.411,0,0,1,56,31.979a11.6,11.6,0,0,1-2.422,3.249c-1.449,1.492-2.888,2.728-4.665,2.964a9.979,9.979,0,0,1-1.615,4.43c-1.019,1.774-2.089,3.308-3.708,3.992a13.732,13.732,0,0,1,.087,3.358c-.142,2.074-.441,3.948-1.645,5.276a9.979,9.979,0,0,1,1.631,4.424c.439,2.4.6,4.581-.816,6.309A12.644,12.644,0,0,1,45.6,68.439c1.39,1.547,2.525,3.067,2.639,4.856a9.979,9.979,0,0,1,4.31,1.913c1.973,1.32,3.617,2.688,3.932,4.812a9.044,9.044,0,0,1,5.168-.364Z" transform="translate(-5.05 0)" fill="#fff"/>
      <ellipse id="Ellipse_134" data-name="Ellipse 134" cx="28.114" cy="28.114" rx="28.114" ry="28.114" transform="translate(33.087 27.551)" fill="#3f3d56"/>
    </g>
    <g id="Group_504" data-name="Group 504" transform="translate(-51 274.1)">
      <rect id="Rectangle_507" data-name="Rectangle 507" width="1.278" height="62.455" transform="translate(16.798 86.272) rotate(-178.739)" fill="#3f3d56"/>
      <path id="Path_2383" data-name="Path 2383" d="M573.126,503.5a14.34,14.34,0,0,0-1.7-10.89l-1.084.676a13.284,13.284,0,0,1,1.561,9.855Z" transform="translate(-555.7 -451.968)" fill="#3f3d56"/>
      <path id="Path_2384" data-name="Path 2384" d="M589.6,488.169s.981-6.7-8.056-8.545c-1.883-.383-3.653-.645-5.275-.82a1.723,1.723,0,0,0-.932,3.262c2.505,1.226,4.862,2.771,6.091,4.6,3.388,5.046,8.172,1.5,8.172,1.5Z" transform="translate(-574.361 -446.979)" fill="#fff"/>
      <path id="Path_2385" data-name="Path 2385" d="M569.321,533.846l1.226-.359a13.283,13.283,0,0,1,1.561-9.855l-1.084-.676a14.339,14.339,0,0,0-1.7,10.89Z" transform="translate(-553.361 -462.925)" fill="#3f3d56"/>
      <path id="Path_2386" data-name="Path 2386" d="M546.031,518.514s-.981-6.7,8.056-8.545c1.883-.383,3.652-.645,5.275-.82a1.723,1.723,0,0,1,.932,3.262c-2.505,1.226-4.862,2.771-6.091,4.6C550.815,522.059,546.031,518.514,546.031,518.514Z" transform="translate(-527.879 -457.935)" fill="#fff"/>
      <path id="Path_2387" data-name="Path 2387" d="M552.528,444.138c-1.819-.48-3.52-1.315-3.463-2.142.067-.982,2.592-1.64,4.771-1.74-1.643-1.286-3.153-3.063-2.691-3.866.424-.739,2.4-.453,4.221.2-1.078-1.541-1.836-3.278-1.259-3.873.719-.74,3.271.538,5.013,1.95-.339-2.2-.168-4.979.819-5.23.826-.21,2,1.406,2.8,3.166.355-1.847,1.073-3.6,1.9-3.6,1.18,0,2.137,3.559,2.137,5.878,0,.131,0,.254-.009.372.119-.137.254-.281.409-.431,1.663-1.615,4.883-3.408,5.705-2.562.577.594-.181,2.331-1.259,3.873,1.822-.651,3.8-.937,4.221-.2.57.993-1.868,3.471-3.849,4.673.119-.014.244-.026.378-.035,2.313-.158,5.929.555,6.009,1.732.056.827-1.645,1.662-3.464,2.142,1.811.681,3.5,1.738,3.349,2.577-.186,1.017-3.029,1.373-5.264,1.165,1.67,1.6,3.481,4.472,2.725,5.313-.554.616-2.338-.022-3.95-.992.773,1.773,1.193,3.724.485,4.2-.936.626-3.5-1.553-4.857-3.428.138,2.294-.411,5.446-1.5,5.57-.823.094-1.736-1.567-2.3-3.362-.6,1.84-1.577,3.578-2.421,3.463-1.1-.15-1.577-3.38-1.372-5.676-1.4,1.8-3.746,3.721-4.632,3.128-.708-.474-.288-2.424.485-4.2-1.611.971-3.4,1.609-3.95.992-.756-.841,1.055-3.711,2.725-5.313-2.235.208-5.078-.148-5.264-1.165-.154-.838,1.538-1.9,3.349-2.577Zm9.794,6.489a2.709,2.709,0,0,1,1.22.388,2.293,2.293,0,0,1,1.411-.511,2.071,2.071,0,0,1,1.634.284,2.355,2.355,0,0,1,1.007-1.062,2.709,2.709,0,0,1,1.17-.519,2.293,2.293,0,0,1,.717-1.318,3.431,3.431,0,0,1,.748-.667,1.992,1.992,0,0,1-.222-1.713,2.709,2.709,0,0,1,.443-1.2,2.294,2.294,0,0,1-.447-1.433,2.118,2.118,0,0,1,.331-1.588c-.917.117-1.36-.455-1.772-1.171a2.709,2.709,0,0,1-.438-1.2,2.294,2.294,0,0,1-1.267-.8,2.656,2.656,0,0,1-.729-1.083,2.239,2.239,0,0,1-1.49.373,2.294,2.294,0,0,1-1.46-.348,2.71,2.71,0,0,1-1.168.523,2.827,2.827,0,0,1-1.223.111,3.15,3.15,0,0,1-.658.882,2.294,2.294,0,0,1-1.267.8,2.709,2.709,0,0,1-.438,1.2,2.329,2.329,0,0,1-1.007,1.084,3.729,3.729,0,0,1,.024.912,2.294,2.294,0,0,1-.447,1.433,2.71,2.71,0,0,1,.443,1.2,1.993,1.993,0,0,1-.222,1.713,3.432,3.432,0,0,1,.748.667,2.293,2.293,0,0,1,.717,1.318,2.71,2.71,0,0,1,1.17.519,2.037,2.037,0,0,1,1.068,1.306A2.456,2.456,0,0,1,562.322,450.627Z" transform="translate(-546.953 -429)" fill="#fff"/>
      <ellipse id="Ellipse_135" data-name="Ellipse 135" cx="7.633" cy="7.633" rx="7.633" ry="7.633" transform="translate(8.983 7.481)" fill="#3f3d56"/>
    </g>
    <g id="Group_505" data-name="Group 505" transform="translate(51.399 264.804)">
      <path id="uuid-fcc96ddd-8a9b-4008-9e3e-ba4d42e134c9" d="M396.409,547.949c3.685,4.415,4.394,9.895,1.584,12.24s-8.074.666-11.76-3.751a14.392,14.392,0,0,1-3.083-6.058l-15.378-18.9,7.491-6.062L391,543.831a14.393,14.393,0,0,1,5.41,4.118Z" transform="translate(-323.852 -454.517)" fill="#ffb6b6"/>
      <path id="Path_2388" data-name="Path 2388" d="M395.439,414.451l-5.352,21.2,26.195,41.932,26.742,26.876,8.667-7.191-26.969-33.556L404.28,420.475Z" transform="translate(-390.087 -414.451)" fill="#e6e6e6"/>
    </g>
    <path id="Path_2389" data-name="Path 2389" d="M480.3,348.233c-4.04-.01-4.269.017-4.922,0-5.011-.132-6.321-2.1-8.861-1.969-4.533.24,1.45,22.966,3.938,33.473,2.44,10.3-5.807,19.538-6.4,20.182-8.371,9.1-23.074,10.768-25.6,6.891-2.042-3.138,5.2-7.909,3.446-14.767-1.71-6.7-9.607-5.99-11.814-12.306-2.312-6.614,5.457-9.95,10.337-26.089,2.8-9.269,2.307-11,4.922-16.736,6.991-15.345,41.258-8.811,37.411,5.415-.744,2.752,1.236,5.916-2.461,5.907Z" transform="translate(-395.352 -118.465)" fill="#2f2e41"/>
    <line id="Line_60" data-name="Line 60" x1="59" transform="translate(-39.307 103.982)" fill="none" stroke="#fff" stroke-width="1"/>
    <line id="Line_61" data-name="Line 61" x1="55" transform="translate(-186.307 202.16)" fill="none" stroke="#fff" stroke-width="1"/>
    <line id="Line_62" data-name="Line 62" x1="35" transform="translate(-105.307 151.982)" fill="none" stroke="#fff" stroke-width="1"/>
  </g>
</svg>
