<svg xmlns="http://www.w3.org/2000/svg" width="78.664" height="79.463" viewBox="0 0 78.664 79.463">
  <g id="Group_481" data-name="Group 481" transform="translate(-1585.268 -633.338)">
    <g id="Group_473" data-name="Group 473" transform="translate(1585.268 645.738)">
      <path id="Path_2356" data-name="Path 2356" d="M1630.683,703.594a24.031,24.031,0,0,1-6.26-.835c-8-2.171-15.762-6.982-23.074-14.294-11.518-11.518-15.021-22.892-15.929-30.406a21.855,21.855,0,0,1,8.442-19.812l.552-.427a6.682,6.682,0,0,1,8.551.555l6.042,6.038a6.55,6.55,0,0,1,.07,9.176l-2.831,3.677a6.26,6.26,0,0,0-.793,6.245c2.792,6.578,9,17.952,19.211,20.228a6.339,6.339,0,0,0,5.254-1.212l4.578-3.518a6.556,6.556,0,0,1,9.173.07l6.042,6.042a6.668,6.668,0,0,1,.5,8.629l-.389.49A24.434,24.434,0,0,1,1630.683,703.594Zm-32.336-64.1a3.463,3.463,0,0,0-2.112.683l-.556.427a18.854,18.854,0,0,0-7.3,17.094h0c.854,7.048,4.159,17.739,15.075,28.658,6.943,6.939,14.259,11.491,21.75,13.521a21.318,21.318,0,0,0,22.286-7.491l.388-.489a3.653,3.653,0,0,0-.276-4.672l-6.038-6.042a3.661,3.661,0,0,0-5.033,0l-.147.128-4.648,3.576a9.3,9.3,0,0,1-7.72,1.755c-11.51-2.567-18.287-14.865-21.3-21.972a9.233,9.233,0,0,1,1.173-9.227l3.013-3.895a3.565,3.565,0,0,0,0-5.033l-6.042-6.042A3.558,3.558,0,0,0,1598.347,639.5Z" transform="translate(-1585.268 -636.531)" fill="#1a1a1a"/>
    </g>
    <g id="Group_475" data-name="Group 475" transform="translate(1603.156 633.338)">
      <g id="Group_474" data-name="Group 474">
        <path id="Path_2357" data-name="Path 2357" d="M1641.6,693.128a1.468,1.468,0,0,1-.92-.322,1.488,1.488,0,0,1-.249-2.093,33.577,33.577,0,0,0-48.1-46.389,1.492,1.492,0,0,1-1.934-2.272,36.56,36.56,0,0,1,52.377,50.51A1.489,1.489,0,0,1,1641.6,693.128Z" transform="translate(-1589.875 -633.338)" fill="#1a1a1a"/>
      </g>
    </g>
    <g id="Group_480" data-name="Group 480" transform="translate(1616.56 650.784)">
      <g id="Group_476" data-name="Group 476" transform="translate(0 4.337)">
        <path id="Path_2358" data-name="Path 2358" d="M1597.6,662.664a1.489,1.489,0,0,1-1.456-1.188c-1.2-5.8,3.483-8.765,6.124-9.522a5.1,5.1,0,0,0,3.308-2.2,5.05,5.05,0,1,0-9.164-1.759,1.491,1.491,0,1,1-2.92.6,8.031,8.031,0,1,1,9.487,6.248c-.346.1-3.809,1.239-4.031,4.528l11.165-2.3a1.491,1.491,0,1,1,.6,2.92l-12.811,2.637A1.618,1.618,0,0,1,1597.6,662.664Z" transform="translate(-1593.326 -638.948)" fill="#1a1a1a"/>
      </g>
      <g id="Group_479" data-name="Group 479" transform="translate(17.023)">
        <g id="Group_477" data-name="Group 477" transform="translate(0 2.044)">
          <path id="Path_2359" data-name="Path 2359" d="M1601.341,651.751a1.489,1.489,0,0,1-1.456-1.188l-2.144-10.411a1.489,1.489,0,1,1,2.916-.6l1.844,8.951,8.466-1.744a1.491,1.491,0,1,1,.6,2.92l-9.926,2.042A1.329,1.329,0,0,1,1601.341,651.751Z" transform="translate(-1597.71 -638.357)" fill="#1a1a1a"/>
        </g>
        <g id="Group_478" data-name="Group 478" transform="translate(9.926)">
          <path id="Path_2360" data-name="Path 2360" d="M1605.726,660.095a1.49,1.49,0,0,1-1.46-1.188l-3.969-19.284a1.49,1.49,0,1,1,2.92-.6l3.968,19.28a1.493,1.493,0,0,1-1.161,1.759A1.336,1.336,0,0,1,1605.726,660.095Z" transform="translate(-1600.266 -637.831)" fill="#1a1a1a"/>
        </g>
      </g>
    </g>
  </g>
</svg>
