<svg xmlns="http://www.w3.org/2000/svg" width="75.685" height="79.462" viewBox="0 0 75.685 79.462">
  <g id="Group_452" data-name="Group 452" transform="translate(0 0)">
    <g id="Group_448" data-name="Group 448" transform="translate(0 47.861)">
      <g id="Group_445" data-name="Group 445" transform="translate(0 0.975)">
        <path id="Path_2337" data-name="Path 2337" d="M1704.891,717.407a5.594,5.594,0,0,1-1.772-.29l-26.607-8.824a3.684,3.684,0,0,0-2.783.2l-8.485,4.162a1.173,1.173,0,0,1-1.033-2.105l8.476-4.156a6.035,6.035,0,0,1,4.565-.327l26.6,8.824a3.26,3.26,0,0,0,1.918.046l1.274-.354a6.342,6.342,0,0,0,2.105-1.027L1736,693.619a2.22,2.22,0,0,0,.831-2.319l-.259-1.024a1.511,1.511,0,0,0-1.473-1.149.668.668,0,0,0-.358.1l-25.4,15.718a1.172,1.172,0,0,1-1.179.027l-9.17-5.038a1.171,1.171,0,1,1,1.127-2.053l8.571,4.709,24.817-15.354a3.025,3.025,0,0,1,1.6-.455,3.851,3.851,0,0,1,3.746,2.927l.26,1.023a4.56,4.56,0,0,1-1.7,4.77l-26.843,19.934a8.6,8.6,0,0,1-2.884,1.408l-1.265.351A5.566,5.566,0,0,1,1704.891,717.407Z" transform="translate(-1663.555 -686.781)" fill="#1a1a1a"/>
      </g>
      <g id="Group_446" data-name="Group 446" transform="translate(2.154 1.082)">
        <path id="Path_2338" data-name="Path 2338" d="M1698.124,700.01l-6.224-.22a1.171,1.171,0,0,1-1.13-1.213,1.2,1.2,0,0,1,1.213-1.13l6.163.217,15.223-.26a1.631,1.631,0,0,0,1.595-1.491l.137-1.589a1.311,1.311,0,0,0-1.142-1.415l-29.349-3.719a3.869,3.869,0,0,0-1.714.168l-17.084,5.821a1.172,1.172,0,1,1-.757-2.218l17.093-5.824a6.242,6.242,0,0,1,2.756-.272l29.348,3.715a3.649,3.649,0,0,1,3.184,3.945l-.138,1.592a3.977,3.977,0,0,1-3.89,3.633Z" transform="translate(-1664.26 -686.816)" fill="#1a1a1a"/>
      </g>
      <g id="Group_447" data-name="Group 447" transform="translate(49.611)">
        <path id="Path_2339" data-name="Path 2339" d="M1680.965,693.493a1.174,1.174,0,0,1-.434-2.264l11.4-4.525a4.083,4.083,0,0,1,2.716-.018,4.671,4.671,0,0,1,3.123,4.4v.37a1.173,1.173,0,0,1-2.347,0v-.37a2.318,2.318,0,0,0-1.552-2.188,1.692,1.692,0,0,0-1.119,0l-11.357,4.51A1.181,1.181,0,0,1,1680.965,693.493Z" transform="translate(-1679.791 -686.462)" fill="#1a1a1a"/>
      </g>
    </g>
    <g id="Group_451" data-name="Group 451" transform="translate(19.832 0)">
      <g id="Group_449" data-name="Group 449">
        <path id="Path_2340" data-name="Path 2340" d="M1696.3,717.523h-5.794a1.171,1.171,0,0,1-1.167-1.072l-.378-4.321a18.168,18.168,0,0,1-5.253-2.017l-3.193,2.683a1.178,1.178,0,0,1-1.586-.07l-4.095-4.095a1.175,1.175,0,0,1-.07-1.583l2.554-3.04a18.153,18.153,0,0,1-2.328-5.445l-3.881-.339a1.171,1.171,0,0,1-1.07-1.167v-5.793a1.17,1.17,0,0,1,1.07-1.167l3.881-.339a18.156,18.156,0,0,1,2.328-5.445l-2.554-3.04a1.179,1.179,0,0,1,.07-1.586l4.095-4.094a1.178,1.178,0,0,1,1.586-.07l3.193,2.683a18.174,18.174,0,0,1,5.253-2.016l.378-4.321a1.171,1.171,0,0,1,1.167-1.069h5.794a1.171,1.171,0,0,1,1.167,1.069l.4,4.608a18.154,18.154,0,0,1,4.757,2.124l3.664-3.077a1.174,1.174,0,0,1,1.582.07l4.1,4.094a1.178,1.178,0,0,1,.068,1.586l-3.205,3.819a18.256,18.256,0,0,1,1.837,4.565l5.023.44a1.171,1.171,0,0,1,1.073,1.167v5.793a1.171,1.171,0,0,1-1.073,1.167l-5.023.437a18.272,18.272,0,0,1-1.837,4.568l3.205,3.819a1.174,1.174,0,0,1-.068,1.583l-4.1,4.095a1.174,1.174,0,0,1-1.582.07l-3.664-3.074a18.261,18.261,0,0,1-4.757,2.121l-.4,4.608A1.171,1.171,0,0,1,1696.3,717.523Zm-4.718-2.347h3.642l.381-4.363a1.171,1.171,0,0,1,.9-1.039,15.948,15.948,0,0,0,5.531-2.475,1.17,1.17,0,0,1,1.427.061l3.511,2.949,2.575-2.576L1706.5,704.1a1.171,1.171,0,0,1-.092-1.381,15.863,15.863,0,0,0,2.157-5.378,1.179,1.179,0,0,1,1.048-.938l4.807-.419v-3.645l-4.807-.418a1.176,1.176,0,0,1-1.048-.938,15.873,15.873,0,0,0-2.157-5.375,1.17,1.17,0,0,1,.092-1.381l3.052-3.639-2.575-2.576-3.511,2.948a1.175,1.175,0,0,1-1.427.064,15.9,15.9,0,0,0-5.531-2.478,1.167,1.167,0,0,1-.9-1.039l-.381-4.363h-3.642l-.36,4.137a1.175,1.175,0,0,1-.981,1.054,15.839,15.839,0,0,0-6.01,2.3,1.18,1.18,0,0,1-1.387-.088l-3.016-2.533-2.576,2.576,2.432,2.894a1.18,1.18,0,0,1,.058,1.433,15.871,15.871,0,0,0-2.64,6.163,1.174,1.174,0,0,1-1.048.944l-3.669.318v3.645l3.669.321a1.171,1.171,0,0,1,1.048.941,15.883,15.883,0,0,0,2.64,6.166,1.176,1.176,0,0,1-.058,1.43l-2.432,2.894,2.576,2.576,3.016-2.53a1.176,1.176,0,0,1,1.387-.092,15.783,15.783,0,0,0,6.01,2.3,1.181,1.181,0,0,1,.981,1.057Zm24.01-18.119h0Z" transform="translate(-1670.045 -670.798)" fill="#1a1a1a"/>
      </g>
      <g id="Group_450" data-name="Group 450" transform="translate(11.666 11.666)">
        <path id="Path_2341" data-name="Path 2341" d="M1685.56,698.006a11.695,11.695,0,1,1,11.693-11.693A11.708,11.708,0,0,1,1685.56,698.006Zm0-21.043a9.35,9.35,0,1,0,9.35,9.35A9.36,9.36,0,0,0,1685.56,676.962Z" transform="translate(-1673.863 -674.616)" fill="#1a1a1a"/>
      </g>
    </g>
  </g>
</svg>
