<svg xmlns="http://www.w3.org/2000/svg" width="76.258" height="79.463" viewBox="0 0 76.258 79.463">
  <g id="Group_461" data-name="Group 461" transform="translate(-2572.38 -1671.85)">
    <g id="Group_457" data-name="Group 457" transform="translate(2572.38 1671.85)">
      <g id="Group_454" data-name="Group 454" transform="translate(9.103)">
        <path id="Path_2342" data-name="Path 2342" d="M2583.374,1692.547a7.982,7.982,0,0,1-7.975-7.975v-4.749a7.974,7.974,0,0,1,15.948,0v4.749A7.982,7.982,0,0,1,2583.374,1692.547Zm0-18.4a5.686,5.686,0,0,0-5.681,5.678v4.749a5.68,5.68,0,1,0,11.359,0v-4.749A5.684,5.684,0,0,0,2583.374,1674.145Z" transform="translate(-2575.399 -1671.85)" fill="#1a1a1a"/>
      </g>
      <g id="Group_455" data-name="Group 455" transform="translate(0 22.12)">
        <path id="Path_2343" data-name="Path 2343" d="M2598.461,1736.529H2580.85a1.145,1.145,0,0,1-1.146-1.146v-21.96a7.708,7.708,0,0,1-7.32-7.052l0-13.767a13.432,13.432,0,0,1,13.418-13.418h34.626a1.155,1.155,0,0,1,.856.386,1.14,1.14,0,0,1,.283.893c-.4,3.506-3.051,10.14-10.263,10.14l-11.693,0v44.781A1.145,1.145,0,0,1,2598.461,1736.529ZM2582,1734.234h15.313v-44.779a1.153,1.153,0,0,1,1.149-1.148h0l12.839,0c5.34,0,7.161-4.541,7.737-6.829H2585.8a11.135,11.135,0,0,0-11.123,11.123V1706.3a5.379,5.379,0,0,0,5.029,4.821v-17.485a1.147,1.147,0,1,1,2.295,0Z" transform="translate(-2572.379 -1679.186)" fill="#1a1a1a"/>
      </g>
      <g id="Group_456" data-name="Group 456" transform="translate(15.93 52.634)">
        <path id="Path_2344" data-name="Path 2344" d="M2578.812,1716.135a1.145,1.145,0,0,1-1.148-1.146v-24.537a1.147,1.147,0,0,1,2.294,0v24.537A1.145,1.145,0,0,1,2578.812,1716.135Z" transform="translate(-2577.663 -1689.306)" fill="#1a1a1a"/>
      </g>
    </g>
    <g id="Group_458" data-name="Group 458" transform="translate(2600.165 1681.049)">
      <path id="Path_2345" data-name="Path 2345" d="M2628.918,1715.546H2588.1a1.147,1.147,0,0,1,0-2.294h39.668V1677.2h-45.029a1.147,1.147,0,1,1,0-2.295h46.174a1.146,1.146,0,0,1,1.148,1.149V1714.4A1.145,1.145,0,0,1,2628.918,1715.546Z" transform="translate(-2581.595 -1674.901)" fill="#1a1a1a"/>
    </g>
    <g id="Group_459" data-name="Group 459" transform="translate(2619.276 1719.4)">
      <path id="Path_2346" data-name="Path 2346" d="M2589.082,1719.533a1.147,1.147,0,0,1-1.148-1.146v-29.618a1.147,1.147,0,1,1,2.294,0v29.618A1.146,1.146,0,0,1,2589.082,1719.533Z" transform="translate(-2587.934 -1687.62)" fill="#1a1a1a"/>
    </g>
    <g id="Group_460" data-name="Group 460" transform="translate(2607.878 1719.4)">
      <path id="Path_2347" data-name="Path 2347" d="M2608.1,1719.533a1.147,1.147,0,0,1-1.07-.736l-10.327-26.835-10.328,26.835a1.148,1.148,0,1,1-2.143-.823l11.4-29.618a1.147,1.147,0,0,1,2.141,0l11.4,29.618a1.146,1.146,0,0,1-1.073,1.559Z" transform="translate(-2584.153 -1687.62)" fill="#1a1a1a"/>
    </g>
  </g>
</svg>
