<svg xmlns="http://www.w3.org/2000/svg" width="102.962" height="79.463" viewBox="0 0 102.962 79.463">
  <g id="Group_472" data-name="Group 472" transform="translate(-1384.392 -953.793)">
    <g id="Group_462" data-name="Group 462" transform="translate(1384.392 953.793)">
      <path id="Path_2348" data-name="Path 2348" d="M1473.6,1017.768a1.606,1.606,0,1,1,0-3.212,10.513,10.513,0,0,0,1.217-20.959,1.626,1.626,0,0,1-1.087-.619,1.607,1.607,0,0,1-.314-1.209,18.038,18.038,0,0,0,.213-2.593,17.786,17.786,0,0,0-17.764-17.764,18.007,18.007,0,0,0-3.584.36,1.6,1.6,0,0,1-1.8-.945,22.693,22.693,0,0,0-41.639-.309,1.611,1.611,0,0,1-1.364.949,16.475,16.475,0,0,0-14.531,21.909,1.606,1.606,0,0,1-.624,1.866,10.532,10.532,0,0,0,5.827,19.316,1.606,1.606,0,0,1,0,3.212,13.743,13.743,0,0,1-8.6-24.477,19.67,19.67,0,0,1,16.756-24.941,25.9,25.9,0,0,1,46.6.059,20.974,20.974,0,0,1,23.93,20.767c0,.49-.021.987-.067,1.51a13.723,13.723,0,0,1-3.171,27.083Z" transform="translate(-1384.392 -953.793)" fill="#1a1a1a"/>
    </g>
    <g id="Group_471" data-name="Group 471" transform="translate(1405.553 989.116)">
      <g id="Group_468" data-name="Group 468" transform="translate(14.535)">
        <g id="Group_463" data-name="Group 463" transform="translate(0.686)">
          <path id="Path_2349" data-name="Path 2349" d="M1435.411,994.165h-29.375a1.6,1.6,0,1,1,0-3.208h29.375l.063-4.363V965.513l-39.108-.063-.063,7.3a1.606,1.606,0,0,1-3.212,0v-7.24a3.28,3.28,0,0,1,3.275-3.275h39.045a3.282,3.282,0,0,1,3.275,3.275v25.38A3.276,3.276,0,0,1,1435.411,994.165Z" transform="translate(-1393.09 -962.238)" fill="#1a1a1a"/>
        </g>
        <g id="Group_464" data-name="Group 464" transform="translate(12.025 22.754)">
          <path id="Path_2350" data-name="Path 2350" d="M1428.452,970.886h-31.044a1.6,1.6,0,1,1,0-3.208h31.044a1.6,1.6,0,1,1,0,3.208Z" transform="translate(-1395.801 -967.678)" fill="#1a1a1a"/>
        </g>
        <g id="Group_465" data-name="Group 465" transform="translate(20.708 5.893)">
          <path id="Path_2351" data-name="Path 2351" d="M1401.822,966.855h-2.342a1.6,1.6,0,0,1,0-3.208h2.342a1.6,1.6,0,1,1,0,3.208Z" transform="translate(-1397.877 -963.647)" fill="#1a1a1a"/>
        </g>
        <g id="Group_466" data-name="Group 466" transform="translate(0 15.33)">
          <path id="Path_2352" data-name="Path 2352" d="M1396.871,969.115h-2.342a1.606,1.606,0,0,1,0-3.212h2.342a1.606,1.606,0,1,1,0,3.212Z" transform="translate(-1392.926 -965.903)" fill="#1a1a1a"/>
        </g>
        <g id="Group_467" data-name="Group 467" transform="translate(12.828 28.719)">
          <path id="Path_2353" data-name="Path 2353" d="M1415.806,984.526h-18.211a1.6,1.6,0,0,1-1.6-1.606v-5.082a1.6,1.6,0,0,1,1.288-1.573l4.772-.954a1.525,1.525,0,0,1,.313-.029h.067V970.71a1.606,1.606,0,0,1,1.606-1.606h5.215a1.606,1.606,0,0,1,1.606,1.606v4.572a1.473,1.473,0,0,1,.305.029l4.944.949a1.608,1.608,0,0,1,1.3,1.577v5.082A1.607,1.607,0,0,1,1415.806,984.526Zm-16.6-3.212h15v-2.15l-3.488-.673h-1.456a1.606,1.606,0,0,1-1.605-1.606v-4.572h-2.008v4.572a1.6,1.6,0,0,1-1.6,1.606h-1.514l-3.325.665Z" transform="translate(-1395.993 -969.104)" fill="#1a1a1a"/>
        </g>
      </g>
      <g id="Group_469" data-name="Group 469" transform="translate(0 18.45)">
        <path id="Path_2354" data-name="Path 2354" d="M1399.82,992.339h-7.638a2.736,2.736,0,0,1-2.731-2.736V969.38a2.735,2.735,0,0,1,2.731-2.731h7.638a2.735,2.735,0,0,1,2.731,2.731V989.6A2.736,2.736,0,0,1,1399.82,992.339Zm-7.157-3.212h6.68V969.861h-6.68Z" transform="translate(-1389.451 -966.649)" fill="#1a1a1a"/>
      </g>
      <g id="Group_470" data-name="Group 470" transform="translate(4.847 8.909)">
        <path id="Path_2355" data-name="Path 2355" d="M1412.26,999.6h-18.379a1.606,1.606,0,0,1,0-3.212h18.379l.063-28.748-18.442-.063-.062,7.939a1.6,1.6,0,1,1-3.208,0v-7.876a3.276,3.276,0,0,1,3.271-3.271h18.379a3.276,3.276,0,0,1,3.275,3.271v28.685A3.28,3.28,0,0,1,1412.26,999.6Z" transform="translate(-1390.61 -964.368)" fill="#1a1a1a"/>
      </g>
    </g>
  </g>
</svg>
