<svg xmlns="http://www.w3.org/2000/svg" width="127.681" height="295.62" viewBox="0 0 127.681 295.62">
  <path id="Subtraction_1" data-name="Subtraction 1" d="M224.128,304.619a3.525,3.525,0,0,1-.383-.029,3.148,3.148,0,0,0-.362-.029h-.01c-5.446.012-10.987.014-15.689.014h-9v-.019h-.28l-5.465,0h-.549l-6.014,0c-4.651,0-8.223.008-11.583.026h-.046a3.009,3.009,0,0,1-2.971-1.659c-8.651-13.775-15.678-25.3-22.116-36.27-.295-.5-.608-1.009-.91-1.5l-.007-.011c-.27-.435-.549-.885-.816-1.337a5.912,5.912,0,0,0-5.323-3.165c-.1,0-.211,0-.316.006-.933.038-1.919.082-2.712.116-3.138.138-6.383.28-9.577.311v-45h.033c44.548,0,80.823-35.726,80.863-79.64A79.633,79.633,0,0,0,187.048,79.69a80.443,80.443,0,0,0-56.992-23.823H130V10.021c.761-.015,1.512-.021,2.233-.021a114.144,114.144,0,0,1,17.978,1.421,116.192,116.192,0,0,1,18.414,4.517,121.376,121.376,0,0,1,17.437,7.413,139.764,139.764,0,0,1,16.049,9.789,156.376,156.376,0,0,1,14.664,11.766,134.185,134.185,0,0,1,12.843,13.282,115.82,115.82,0,0,1,17.523,28.305,112.425,112.425,0,0,1,5.017,14.032,118.278,118.278,0,0,1,3.681,18.623,131.355,131.355,0,0,1,.78,18.961,133.218,133.218,0,0,1-3.133,26.328,121.881,121.881,0,0,1-9.773,27.26,118.344,118.344,0,0,1-12.337,19.46A133.962,133.962,0,0,1,215.667,228a153.723,153.723,0,0,1-25.7,18.777c-.936.546-1.405.82-1.491,1.182s.2.789.767,1.657l.052.079c3,4.6,6.033,9.26,8.966,13.767,4.226,6.494,8.6,13.208,12.919,19.819,2.495,3.815,5.055,7.678,7.53,11.413l.012.019c1.8,2.715,3.66,5.523,5.48,8.29a2.7,2.7,0,0,0,.257.312c.25.275.508.559.353.913A.662.662,0,0,1,224.128,304.619Z" transform="translate(-129.5 -9.5)" fill="none" stroke="#00bbe3" stroke-width="1"/>
</svg>
