<svg xmlns="http://www.w3.org/2000/svg" width="214.512" height="235.433" viewBox="0 0 214.512 235.433">
  <path id="Path_47" data-name="Path 47" d="M246.805,502.25c-.769-.457-.359-1.194-.359-1.78q-.03-94.1-.018-188.192c0-3.934,0-3.935-3.988-3.933-8.641,0-17.282-.014-25.922.036a2.089,2.089,0,0,1-2.3-1.433Q206.071,288.5,197.8,270.112a4.714,4.714,0,0,0-.516-.738v-.307c5.111-.035,10.223-.095,15.334-.1q59.44-.07,118.879-.118a82.482,82.482,0,0,1,28.437,4.518c15.108,5.479,27.3,14.68,35.571,28.649a52.812,52.812,0,0,1,7.069,21.5,55.617,55.617,0,0,1-10.912,40.219A59.183,59.183,0,0,1,374.637,379.1c-1.608.982-3.2,1.987-4.835,2.928-1.045.6-.759.915.112,1.391,2.56,1.4,5.338,2.289,7.963,3.534,12.109,5.743,21.44,14.342,27.1,26.6a52.409,52.409,0,0,1,4.706,19.04c.835,14.174-3.129,26.97-10.663,38.867a63.809,63.809,0,0,1-20.716,19.969,75.165,75.165,0,0,1-24.505,9.9,37.478,37.478,0,0,1-6.189.934q-19.535.007-39.069.013-28.878,0-57.756,0C249.46,502.277,248.132,502.259,246.805,502.25Zm54.6-134.79a4.016,4.016,0,0,1,1.909-.2c5.267-.016,10.536.038,15.8-.037,3.879-.055,7.771.263,11.636-.315,6.879-1.03,12.9-3.779,17.587-9.03a27.706,27.706,0,0,0,6.181-12.954c1.711-7.856,1.312-15.417-2.574-22.592-3.87-7.146-9.918-11.269-17.852-12.811-5.07-.986-10.2-.6-15.29-.741-7.82-.212-15.649-.056-23.473-.077-2.715-.008-2.644-.4-2.644,2.634q0,72.491,0,144.984c0,1.125.061,2.254-.015,3.374-.075,1.093.215,1.6,1.431,1.511,1.322-.1,2.658-.033,3.987-.01,12.778.221,25.555.5,38.335-.051a26.765,26.765,0,0,0,8.121-1.4c9.509-3.494,14.634-10.711,16.52-20.36a29.194,29.194,0,0,0-2.957-20.2c-4.764-8.623-12.024-13.68-21.964-14.543-5.553-.482-11.127-.555-16.7-.493a1.917,1.917,0,0,1-2.07-1.326c-3.906-8.748-7.891-17.461-11.847-26.188C304.149,373.589,302.785,370.532,301.4,367.459Z" transform="translate(-196.282 -267.848)" fill="none" stroke="#dedede" stroke-width="2"/>
</svg>
