<svg xmlns="http://www.w3.org/2000/svg" width="602.257" height="347.722" viewBox="0 0 602.257 347.722">
  <g id="Group_509" data-name="Group 509" transform="translate(338.203 9.21)">
    <ellipse id="Ellipse_136" data-name="Ellipse 136" cx="37.732" cy="37.732" rx="37.732" ry="37.732" transform="translate(167.712 12.245)" fill="#00bbe3"/>
    <path id="Path_2390" data-name="Path 2390" d="M285.37,133.951,283.8,127.1a1.538,1.538,0,0,0-.708-1.9,5.64,5.64,0,0,0-5.368-2.882,1.538,1.538,0,0,0-1.851.309,6.517,6.517,0,0,0-4.65-2.5,1.539,1.539,0,0,0-.766-1.713,6.688,6.688,0,0,0-5.368-2.882,1.542,1.542,0,0,0-2.088.629l-.3.562-5.436,2.309.471.813,4.517-2.257a4.586,4.586,0,0,0,8.209,4.082l.543-1.011,4.549,2.442-.543,1.011a4.589,4.589,0,0,0,8.086,4.341l.239-.446.733,5.974,1.3-.034Z" transform="translate(-189.761 -49.186)" fill="#3f3d56"/>
    <path id="Path_2391" data-name="Path 2391" d="M169.03,537.245a1.3,1.3,0,0,0,.943-2.256l-.089-.354.035-.085a3.5,3.5,0,0,1,6.448.024c1.055,2.54,2.4,5.084,2.728,7.77a10.342,10.342,0,0,1-.182,3.557,41.461,41.461,0,0,0,3.772-17.22,40.019,40.019,0,0,0-.248-4.464q-.206-1.823-.571-3.62a41.942,41.942,0,0,0-8.317-17.776A11.162,11.162,0,0,1,168.907,498a8.514,8.514,0,0,1-.774-2.327,10.508,10.508,0,0,0,.682-3.623c.315-.478.879-.715,1.223-1.182,1.711-2.319,4.068-1.914,5.3,1.237,2.628,1.327,2.654,3.527,1.041,5.642-1.026,1.346-1.167,3.168-2.067,4.609.093.119.189.233.282.352a42.213,42.213,0,0,1,4.406,6.98,17.548,17.548,0,0,1,1.048-8.151c1-2.419,2.882-4.456,4.537-6.548A3.6,3.6,0,0,1,191,496.763l.01.092q-.369.208-.722.442A1.766,1.766,0,0,0,191,500.51l.036.006a17.569,17.569,0,0,1-.463,2.627c2.123,8.212-2.461,11.2-9.006,11.337-.145.074-.285.148-.43.219a43.086,43.086,0,0,1,2.319,10.914,40.862,40.862,0,0,1-.03,6.6l.011-.078a10.8,10.8,0,0,1,3.686-6.235c2.837-2.33,6.845-3.189,9.905-5.062a2.027,2.027,0,0,1,3.1,1.971l-.013.082a11.877,11.877,0,0,0-1.33.641q-.369.208-.722.442a1.766,1.766,0,0,0,.712,3.213l.036.005.074.011a17.582,17.582,0,0,1-3.234,5.064c-1.328,7.168-7.03,7.849-13.13,5.761h0a43.073,43.073,0,0,1-2.894,8.447H169.289c-.037-.115-.07-.233-.1-.348a11.742,11.742,0,0,0,2.86-.17c-.767-.941-1.534-1.89-2.3-2.83a.639.639,0,0,1-.048-.056c-.389-.482-.782-.959-1.171-1.441h0a17.2,17.2,0,0,1,.5-4.382h0Z" transform="translate(-53.419 -208.676)" fill="#a1abac"/>
    <path id="Path_2392" data-name="Path 2392" d="M298.876,150.13l-6.255,7.506,3.336-24.186,1.237.619a3.867,3.867,0,0,1,2.137,3.4l-.455,12.666Z" transform="translate(-224.004 -56.903)" fill="#2f2e41"/>
    <g id="Group_507" data-name="Group 507" transform="translate(66.544 294.096)">
      <path id="Path_2393" data-name="Path 2393" d="M286.173,515.491l-4.02,7.66-.007.021-1.335,2.55-2.149,4.092,0,.005-.9,1.724-1.345,2.563-3.4-1.292-1.014-.39-.533-.2.9-2.364,2.379-6.274,4.13-10.865.046.017,1.015.385,4.054,1.542,1.015.385Z" transform="translate(-265.255 -512.718)" fill="#ffb6b6"/>
      <path id="Path_2394" data-name="Path 2394" d="M293.577,558.65a2.372,2.372,0,0,1-3.053,1.373L288.9,559.4l-1.015-.385-4.056-1.537-1.02-.387-2.121-.807-.36-4.15-.867,1.414,0,.005-1.126,1.835-.595-.223-3.116-1.185,5.788-12.106,1.322.413.483.149,1.037.323,3.867,1.211.005,0,.27.085,1.037.323.43.136-1.348,3.542,2.8,4.056.764,1.107,2.237,3.246a2.367,2.367,0,0,1,.266,2.181Z" transform="translate(-274.623 -525.151)" fill="#2f2e41"/>
    </g>
    <g id="Group_508" data-name="Group 508" transform="translate(35.084 305.481)">
      <path id="Path_2395" data-name="Path 2395" d="M351.915,532.729l-1.216,8.565v.022l-.4,2.85-.651,4.576v.005l-.271,1.927-.407,2.866-3.637-.076-1.085-.027-.57-.011.055-2.529.135-6.709.244-11.621h.049l1.086.022,4.336.092,1.086.022Z" transform="translate(-340.957 -532.566)" fill="#ffb6b6"/>
      <path id="Path_2396" data-name="Path 2396" d="M348.343,575.74a2.373,2.373,0,0,1-2.415,2.318l-1.737-.038L343.105,578l-4.337-.087-1.091-.022-2.269-.049-1.731-3.789-.342,1.623v.005l-.445,2.106-.635-.011-3.333-.071,1.39-13.347,1.384-.054.5-.022,1.086-.043,4.049-.157h.005l.282-.011,1.086-.043.451-.016-.081,3.789,3.995,2.882,1.091.787,3.2,2.307a2.367,2.367,0,0,1,.982,1.965Z" transform="translate(-328.922 -545.974)" fill="#2f2e41"/>
    </g>
    <path id="Path_2397" data-name="Path 2397" d="M367.472,316.986l3.873-22.922-8.312-3.345L361.3,316.066a4.86,4.86,0,1,0,6.177.921Z" transform="translate(-334.076 -123.962)" fill="#ffb6b6"/>
    <path id="Path_2398" data-name="Path 2398" d="M218.838,151.791l15.089,17.684,7.9-4.227-18.319-17.6a4.86,4.86,0,1,0-4.671,4.145Z" transform="translate(-121.312 -60.578)" fill="#ffb6b6"/>
    <ellipse id="Ellipse_137" data-name="Ellipse 137" cx="12.494" cy="12.494" rx="12.494" ry="12.494" transform="translate(51.714 75.215)" fill="#ffb6b6"/>
    <path id="Path_2399" data-name="Path 2399" d="M280.284,288.341l-33.668-3.678-1.251,5.838v1.4l-.718.834-.263,1.047-.686.055s.4.708.113,1.092c-.221.3-1.078.194-1.426.7-3.536,5.156-12.7,20.868-8.277,39.906l-.625,31.484.578,2.476-.669,1.607-.478,2.408-.682,49.8-1.668,5.838,2.5,7.506,15.012.834,2.5-9.591-1.251-12.093,3.753-35.445,1.055-1.69-.606-1.721-.542-2.294,1.157-2.371,4.1-31.112h0a16.666,16.666,0,0,0,1.288-7.922l-.094-1.141.73-5.542,20.225,32.942,6.752,11.693-.705,4.989-4.457,28.28-6.31,6.883-1.147,9.178,9.178,5.736,10.325-3.442v-6.883l15.746-43.008L291.86,319.9l-2.919-2.5.417-3.336-2.755-2.755-5.51-12.363-2.53-5.441,1.721-5.162Z" transform="translate(-198.848 -121.38)" fill="#2f2e41"/>
    <path id="Path_2400" data-name="Path 2400" d="M312.812,175.979h-13.27l-2.993,9.174-18.765,8.757,4.17,19.6,5,17.1,1.474,1.474-.64,2.7h3.239l-.529,3.545-3.545,5.213,38.139-.816V234.21L322.112,222.2h0c3.768-8.289,1.666-13.281,1.147-22.371l3.314-12.592-10.425-1.02-3.336-10.24Z" transform="translate(-242.735 -75.037)" fill="#dedede"/>
    <path id="Path_2401" data-name="Path 2401" d="M213.222,196.39,210.3,189.3s.417-5,9.174-6.255,25.383-2.5,25.383-2.5l-4.021-4.379-1.721-4.589,8.03-4.015,4.6,2.263,1.705,2.9-.574,1.147,2.49,1.511a10.9,10.9,0,0,1-3.009,14.754h0l-1.86,1.86-2.727,1.476-3.336-.417-31.221,3.336Z" transform="translate(-134.502 -71.447)" fill="#dedede"/>
    <path id="Path_2402" data-name="Path 2402" d="M367.441,207.977l-7.089-2.919s-5,.417-6.255,9.174-2.5,31.692-2.5,31.692l-2.085,4.587v1.282l-1.844,3.93,1.108,1.108-3.018,2.436,13.761,5,2.961-7.568-1.293-3.274,1.86-1.86,1.476-2.727-.417-3.336,3.336-37.53Z" transform="translate(-322.593 -87.436)" fill="#dedede"/>
    <path id="Path_2403" data-name="Path 2403" d="M286.143,166.57h3.419a5.806,5.806,0,0,0,1.245-4.463c.161,1.279,2.879-2.633,2.725-1.153-.034.321-1.692,5.879-1.749,6.189a9.722,9.722,0,0,0,5.449,2.478c-.643-1.945.011-2.994,1.99-2.822a6.788,6.788,0,0,0,.356,2.931c5.977-.2,13.193-3.683,20.323-6.413a8.473,8.473,0,0,0-.935-5.266,25.261,25.261,0,0,1,1.968,3.792c.115.3.218.6.31.906.063.218.12.436.172.648l3.3.178c-2.8-4.055-2.294-9.74-5.707-12.8-5.432-4.858-.849-11.931,1.422-18.522a3.924,3.924,0,0,0-2.593-3.849l-4.411-1.583c-5.61-2.013-5.329-3.166-10.749.166-5.421-1.663-14.914,7.187-14.914,13.766a8.3,8.3,0,0,1-.178,1.663,4.612,4.612,0,0,1,1.807.62,25.628,25.628,0,0,0-2.191,1.382,26.143,26.143,0,0,0,.276,10.187c.883,3.769-.723,10.164-1.337,11.96Z" transform="translate(-245.675 -53.251)" fill="#2f2e41"/>
    <path id="Path_2404" data-name="Path 2404" d="M168.274,588.453c0,.379,1.234.683,2.771.683h589.78c1.537,0,2.771-.3,2.771-.683s-1.234-.683-2.771-.683H171.045c-1.537,0-2.771.3-2.771.683Z" transform="translate(-506.477 -250.624)" fill="#a1abac"/>
    <line id="Line_63" data-name="Line 63" x1="96.596" transform="translate(-165.904 225.815) rotate(180)" fill="none" stroke="#fff" stroke-width="2"/>
    <line id="Line_64" data-name="Line 64" x1="57.302" transform="translate(-57.849 147.229) rotate(180)" fill="none" stroke="#a1abac" stroke-width="2"/>
    <g id="Group_510" data-name="Group 510" transform="translate(-216.554 -185.71)">
      <line id="Line_65" data-name="Line 65" y2="12.654" transform="translate(423.33 176.5)" fill="none" stroke="#000" stroke-width="1"/>
      <line id="Line_66" data-name="Line 66" x2="8.948" y2="8.948" transform="translate(381.052 192.541)" fill="none" stroke="#000" stroke-width="1"/>
      <line id="Line_67" data-name="Line 67" x2="12.654" transform="translate(362.5 233.778)" fill="none" stroke="#000" stroke-width="1"/>
      <line id="Line_68" data-name="Line 68" y1="8.948" x2="8.948" transform="translate(378.541 267.108)" fill="none" stroke="#000" stroke-width="1"/>
      <line id="Line_69" data-name="Line 69" y1="12.654" transform="translate(419.778 281.953)" fill="none" stroke="#000" stroke-width="1"/>
      <line id="Line_70" data-name="Line 70" x1="8.948" y1="8.948" transform="translate(453.108 269.619)" fill="none" stroke="#000" stroke-width="1"/>
      <line id="Line_71" data-name="Line 71" x1="12.654" transform="translate(467.953 237.33)" fill="none" stroke="#000" stroke-width="1"/>
      <line id="Line_72" data-name="Line 72" x1="8.948" y2="8.948" transform="translate(455.619 195.052)" fill="none" stroke="#000" stroke-width="1"/>
    </g>
  </g>
</svg>
