<svg xmlns="http://www.w3.org/2000/svg" width="472" height="472.002" viewBox="0 0 472 472.002">
  <path id="Subtraction_3" data-name="Subtraction 3" d="M472.5,472.5H.5V.5h472v472ZM135.324,108.6c6.307,0,6.307.123,6.307,6.533v20.9c0,95.551,0,194.354.03,291.682a4.825,4.825,0,0,1-.088.776c-.132.794-.269,1.615.685,2.18l2.068.018c1.487.014,3.025.028,4.547.028,29.533,0,52.057.006,73.031.006h22.9c16.506,0,33.29-.008,49.521-.015h.121L309.7,430.7a62.442,62.442,0,0,0,10.279-1.552,125.4,125.4,0,0,0,40.7-16.448c14.923-9.319,26.178-20.168,34.408-33.168,13.245-20.918,19.038-42.034,17.71-64.557a87.382,87.382,0,0,0-7.816-31.625c-8.961-19.4-24.107-34.268-45.017-44.185-1.8-.852-3.664-1.616-5.471-2.355a76.637,76.637,0,0,1-7.757-3.516c-.8-.436-1.295-.786-1.3-1.179,0-.331.35-.69,1.113-1.13,1.986-1.144,3.97-2.367,5.89-3.548.7-.432,1.427-.878,2.141-1.314a98.632,98.632,0,0,0,28.275-25.52c14.649-19.844,20.748-42.32,18.125-66.8a87.953,87.953,0,0,0-11.742-35.714c-13.09-22.1-32.968-38.115-59.081-47.586C316.237,45.455,300.826,43,283.044,43h-.119c-65.7.044-130.888.118-197.455.2-5.841.007-11.77.057-17.5.1-2.6.022-5.284.044-7.966.063v.509c.092.13.194.258.292.382a4.117,4.117,0,0,1,.565.845l3.6,8.046.011.024C72.252,70.565,80.3,88.552,88.13,106.281a3.445,3.445,0,0,0,3.75,2.382h.072c9.142-.054,18.259-.061,26.749-.061h16.624ZM263.66,362.938h0c-10.674,0-21.522-.19-32.014-.375l-4.2-.073c-.459-.008-.922-.019-1.37-.03-.853-.021-1.736-.043-2.607-.043-.988,0-1.854.029-2.646.089-.155.012-.3.018-.441.018a1.977,1.977,0,0,1-1.513-.491,2.629,2.629,0,0,1-.422-2.037c.088-1.286.066-2.6.044-3.875v-.007c-.009-.565-.019-1.148-.019-1.722l0-47.528c0-63.089,0-128.325,0-193.286v-.369a9.9,9.9,0,0,1,.262-3.382c.265-.56.806-.658,1.844-.658.264,0,.556.006.9.014h.014c.4.009.86.019,1.378.02q1.245,0,2.49,0c3.259,0,6.575-.015,9.78-.029h.027l.378,0h.037c3.281-.015,6.674-.031,10.052-.031,6.355,0,11.511.06,16.225.187,1.933.052,3.857.059,5.647.059h2.7a88.854,88.854,0,0,1,17.045,1.175,49.35,49.35,0,0,1,9.289,2.737,40.65,40.65,0,0,1,8.069,4.413,38.878,38.878,0,0,1,6.8,6.158,43.974,43.974,0,0,1,5.492,7.971c5.974,11.03,7.372,23.3,4.276,37.525a55.137,55.137,0,0,1-3.731,11.466,39.932,39.932,0,0,1-6.536,10.05,44.053,44.053,0,0,1-13.241,10.128,53.433,53.433,0,0,1-15.97,4.87,65.829,65.829,0,0,1-9.626.588c-1.334,0-2.69-.019-4-.037h-.126c-1.28-.018-2.6-.036-3.9-.036-.592,0-1.138,0-1.669.011-4.2.059-8.335.067-11.464.067-1.767,0-3.564,0-5.3-.006h-.82c-1.581,0-3.216,0-4.823,0-1.414,0-2.67,0-3.839.006-.22,0-.446-.01-.664-.019h-.01c-.214-.01-.436-.02-.665-.02a4.2,4.2,0,0,0-1.832.366q1.075,2.392,2.144,4.777l.038.085c1.529,3.408,3.109,6.931,4.674,10.385,1.812,4,3.659,8.063,5.445,11.994l.066.146c4.664,10.264,9.487,20.878,14.165,31.357a3.178,3.178,0,0,0,3.344,2.2h.094c1.89-.021,3.634-.031,5.332-.031,8.605,0,15.724.27,22.4.85a49.286,49.286,0,0,1,11.553,2.365,42.02,42.02,0,0,1,9.912,4.88,43.466,43.466,0,0,1,8.3,7.3,53.56,53.56,0,0,1,6.717,9.615c5.621,10.173,7.273,21.462,4.91,33.554a55.746,55.746,0,0,1-3.387,11.229,42.46,42.46,0,0,1-5.583,9.513,38.667,38.667,0,0,1-7.958,7.6,44.444,44.444,0,0,1-10.51,5.478,43.622,43.622,0,0,1-13.488,2.322C282.8,362.764,273.819,362.938,263.66,362.938Z" transform="translate(-0.5 -0.5)" fill="#fff"/>
</svg>
